<?xml version="1.0" encoding="utf-8"?><svg xmlns="http://www.w3.org/2000/svg" xmlns:xlink="http://www.w3.org/1999/xlink"><style>:root>svg{display:none}:root>svg:target{display:block}</style><svg viewBox="0 0 512 360" id="i-bank" xmlns="http://www.w3.org/2000/svg"><path d="M142.5 150h77c12.4 0 22.5-10.1 22.5-22.5v-45c0-12.4-10.1-22.5-22.5-22.5h-77C130.1 60 120 70.1 120 82.5v45c0 12.4 10.1 22.5 22.5 22.5zM135 82.5c0-4.1 3.4-7.5 7.5-7.5h77c4.1 0 7.5 3.4 7.5 7.5v45c0 4.1-3.4 7.5-7.5 7.5h-77c-4.1 0-7.5-3.4-7.5-7.5v-45zM444.5 165h-317c-4.1 0-7.5 3.4-7.5 7.5v30c0 4.1 3.4 7.5 7.5 7.5h317c4.1 0 7.5-3.4 7.5-7.5v-30c0-4.1-3.4-7.5-7.5-7.5zm-7.5 30H135v-15h302v15zM337.5 225h-210c-4.1 0-7.5 3.4-7.5 7.5s3.4 7.5 7.5 7.5h210c4.1 0 7.5-3.4 7.5-7.5s-3.4-7.5-7.5-7.5z"/><path d="M474.5 0h-377C76.8 0 60 16.8 60 37.5V60H37.5C16.8 60 0 76.8 0 97.5v225C0 343.2 16.8 360 37.5 360h377c20.7 0 37.5-16.8 37.5-37.5V300h22.5c20.7 0 37.5-16.8 37.5-37.5v-225C512 16.8 495.2 0 474.5 0zm-437 75H60v60H15V97.5C15 85.1 25.1 75 37.5 75zM60 150v45H15v-45h45zm437 112.5c0 12.4-10.1 22.5-22.5 22.5h-377C85.1 285 75 274.9 75 262.5v-30c0-4.1-3.4-7.5-7.5-7.5s-7.5 3.4-7.5 7.5v30c0 20.7 16.8 37.5 37.5 37.5H437v22.5c0 12.4-10.1 22.5-22.5 22.5h-377C25.1 345 15 334.9 15 322.5V210h52.5c4.1 0 7.5-3.4 7.5-7.5v-165C75 25.1 85.1 15 97.5 15h377c12.4 0 22.5 10.1 22.5 22.5v225z"/></svg><svg viewBox="0 0 512 503" id="i-bonuses" xmlns="http://www.w3.org/2000/svg"><path d="M391.2 297.9H206.4L308.5 241c10.7-6 14.5-19.5 8.6-30.2l-15.2-27.3c-6-10.7-19.5-14.5-30.2-8.6l-42.5 23.7c5-10 8.1-19.9 9.3-29.4 1.9-15.9-1.7-30.2-10.4-41.5-14.2-18.3-39-24.4-60.3-14.8-3.8 1.7-5.5 6.1-3.8 9.9 1.7 3.8 6.1 5.5 9.9 3.8 15-6.7 32.4-2.5 42.3 10.3 14.3 18.4 8.8 47.1-14.6 77.1l-9.1 5-6.6-11.7c-1.7-3-3.9-5.7-6.4-7.8 1.6-9.5 6-21.9 10.9-29.9 2.2-3.5 1-8.2-2.5-10.3-3.5-2.2-8.2-1-10.3 2.5-5.3 8.7-9.9 20.7-12.2 31.3-6.3-1-12.7.1-18.3 3.2l-2.6 1.4c-1-21.6 2.3-39.8 9.9-52.8 2.1-3.6.9-8.2-2.7-10.2-3.6-2.1-8.2-.9-10.2 2.7-10 17.3-13.9 40.3-11.4 68.4l-9.1 5c-38.3-28.4-75.7-34.3-100.8-15.4-18.2 13.7-25 37.8-16.7 58.7 8.5 21.3 29.9 34.3 59.4 37.1l-43.5 24.2c-10.7 5.9-14.5 19.5-8.6 30.2L26.1 373c4.1 7.3 11.6 11.4 19.4 11.4 3.7 0 7.4-.9 10.8-2.8l49-27.3v122.2c0 14.7 12 26.6 26.6 26.6h250.8c14.7 0 26.6-11.9 26.6-26.6V316.1c.1-10-8.1-18.2-18.1-18.2zm-250 19.1L119 277.1l67.7-37.7 22.2 39.9-33.8 18.9c-1.2.3-2.3.9-3.2 1.8l-30.7 17zm137.7-129c1.1-.6 2.3-.9 3.5-.9 2.5 0 5 1.3 6.3 3.7l15.2 27.3c1.9 3.5.7 7.9-2.8 9.8L222 272l-22.2-39.9 79.1-44.1zm-124.4 21.4c2-1.1 4.2-1.7 6.5-1.7 1.2 0 2.5.2 3.7.5 3.5 1 6.4 3.3 8.1 6.4l6.6 11.7-67.7 37.7-6.6-11.8c-1.3-2.3-1.8-4.9-1.6-7.5v-.2c.1-.8.2-1.7.5-2.5 1-3.5 3.3-6.3 6.4-8.1l44.1-24.5zm-137 39.2c-5.9-14.6-1-31.6 11.7-41.1 18.4-13.8 46.8-9.4 77.3 11.5l-3.5 1.9c-5.5 3.1-9.8 7.8-12.2 13.5-9.9-3.1-18.8-4.8-31.5-6.2-4.1-.4-7.8 2.5-8.3 6.6-.5 4.1 2.5 7.8 6.6 8.3 14 1.5 22.3 3.4 31 6.4.5 3.5 1.6 7 3.4 10.1l6.6 11.8-8.2 4.6c-37.2 4-64.4-6.2-72.9-27.4zM49 368.4c-3.4 1.9-7.9.6-9.8-2.8L24 338.4c-1.9-3.5-.7-7.9 2.8-9.8l69.4-38.7c.2-.1.4-.2.6-.4l9.2-5.1 22.2 39.9-18.9 10.5s-.1 0-.1.1L49 368.4zm71.3 108V345.9l59.2-33H214v66.4c0 4.1 3.4 7.5 7.5 7.5s7.5-3.4 7.5-7.5v-66.4h56.6V488H229v-73.2c0-4.1-3.4-7.5-7.5-7.5s-7.5 3.4-7.5 7.5V488h-82.1c-6.4 0-11.6-5.2-11.6-11.6zm274.1 0c0 6.4-5.2 11.6-11.6 11.6h-82.1V312.9h90.5c1.7 0 3.2 1.5 3.2 3.2v160.3z"/><path d="M363.7 129.9c.1.9 9.6 92.6-22.5 127.4-2.8 3-2.6 7.8.4 10.6 1.4 1.3 3.3 2 5.1 2 2 0 4-.8 5.5-2.4 36.7-39.8 26.8-135.2 26.4-139.2-.4-4.1-4.1-7.1-8.3-6.6-4.1.3-7.1 4-6.6 8.2zM432.3 118.7c-12.7 19.4-16.7 36.8-16.9 37.5-.9 4 1.6 8 5.6 9 .6.1 1.1.2 1.7.2 3.4 0 6.5-2.4 7.3-5.8 0-.2 3.7-15.8 15.1-33.1 15-22.7 35.5-37.3 61.1-43.4 4-1 6.5-5 5.6-9-1-4-5-6.5-9-5.6-29.3 7-53.6 24.3-70.5 50.2zM278.4 77.5c0 .2.1.6 0 1.5l-1.8 21.8c-.3 2.3-.7 7.5 3.5 10.7 4.3 3.3 9.4 1.2 11.6.3l20-8.4c.4-.1 1.4-.1 1.7 0l20.2 8.4c1.3.5 3.5 1.4 6.1 1.4 1.8 0 3.6-.4 5.4-1.8 4.2-3.2 3.7-8.4 3.5-10.7L346.9 79c-.1-.9 0-1.3 0-1.5L361.5 60c1.7-1.9 5-5.8 3.4-10.8-1.6-5.1-6.8-6.4-9-6.9l-22.1-5.5-11.6-19.4c-1.1-1.8-3.9-6.6-9.5-6.6-5.5 0-8.4 4.8-9.5 6.6l-11.6 19.3-.1.2-22.2 5.5c-2.2.5-7.4 1.8-8.9 6.9-1.6 5 1.9 9 3.4 10.8l14.6 17.4zm17.4-26.3c5-1.2 6.8-3.7 8.4-6.4l8.5-14.1 8.5 14.3c1.5 2.6 3.3 5 8.3 6.2l16.4 4.1L335.3 68c-3.5 4.1-3.6 8.7-3.4 12.2l1.2 15.2-13.9-5.8c-3.9-1.7-9.3-1.7-13.3 0L292 95.4l1.2-15.2c.2-3.2.2-8-3.3-12.1l-10.7-12.8 16.6-4.1zM508.1 232.4c1.6-1.8 5-5.8 3.5-10.8-1.6-5.1-6.8-6.4-9-6.9l-22.1-5.5-11.7-19.5c-1.1-1.8-4-6.6-9.5-6.6s-8.4 4.8-9.5 6.6L438.3 209l-.1.2-22.1 5.5c-2.2.5-7.4 1.8-9 6.9-1.6 5 1.9 9 3.5 10.8l14.5 17.5v1.5l-1.8 21.8c-.2 2.3-.7 7.5 3.5 10.7 4.3 3.2 9.3 1.2 11.5.3l20-8.4c.4-.1 1.4-.1 1.8 0l20.2 8.4c1.3.5 3.5 1.4 6.1 1.4 1.8 0 3.6-.4 5.4-1.8 4.2-3.2 3.8-8.4 3.5-10.7l-1.8-21.8c-.1-.9 0-1.3 0-1.5l14.6-17.4zm-26.1 8c-3.5 4.1-3.6 8.7-3.4 12.2l1.2 15.2L466 262c-4-1.6-9.3-1.6-13.2 0l-13.9 5.8 1.2-15.2c.3-3.5.1-8.1-3.3-12.1l-10.6-12.8 16.5-4.1c5-1.2 6.8-3.7 8.3-6.3l8.5-14.2 8.2 13.6.3.5c1.5 2.6 3.3 5.1 8.3 6.4l16.4 4.1-10.7 12.7zM432 75c20.7 0 37.5-16.8 37.5-37.5S452.7 0 432 0s-37.5 16.8-37.5 37.5S411.3 75 432 75zm0-60c12.4 0 22.5 10.1 22.5 22.5S444.4 60 432 60s-22.5-10.1-22.5-22.5S419.6 15 432 15z"/></svg><svg version="1.1" id="i-coin" x="0" y="0" viewBox="0 0 635 635" xml:space="preserve" xmlns="http://www.w3.org/2000/svg"><style>.cst0,.cst1,.cst2,.cst3{clip-path:url(#cSVGID_2_);fill:#f6d738}.cst1,.cst2,.cst3{fill:#f3cc30}.cst2,.cst3{fill:#edbd31}.cst3{fill:#f7db5e}</style><defs><path id="cSVGID_1_" d="M0 0h635v635H0z"/></defs><clipPath id="cSVGID_2_"><use xlink:href="#cSVGID_1_" overflow="visible"/></clipPath><path class="cst0" d="M0 317.5C0 142.1 142.1 0 317.5 0S635 142.1 635 317.5 492.8 635 317.5 635 0 492.9 0 317.5"/><path class="cst1" d="M48 317.5C48 168.7 168.7 48 317.5 48S587 168.7 587 317.5 466.3 587 317.5 587 48 466.3 48 317.5"/><path class="cst2" d="M458.5 87.5c26.8 41.9 42.4 91.7 42.4 145.1 0 148.8-120.6 269.5-269.5 269.5-51.7 0-100-14.6-141-39.8 47.9 74.8 131.7 124.3 227.1 124.3C466.3 586.6 587 466 587 317.2c0-97.2-51.4-182.3-128.5-229.7"/><path class="cst3" d="M95.2 342.2c0-131.4 106.5-237.9 237.9-237.9 76.8 0 145.1 36.4 188.6 92.9-41.1-71.3-118.1-119.4-206.3-119.4C184 77.8 77.5 184.3 77.5 315.7c0 54.6 18.4 104.9 49.3 145-20.1-34.9-31.6-75.4-31.6-118.5"/></svg><svg viewBox="0 0 311.6 311.6" id="i-false" xmlns="http://www.w3.org/2000/svg"><path d="M281.3 232c-21.4-25.1-49-44.1-71-68.5-2.4-2.4-4.3-4.9-6.7-7.3 20.8-24.5 42.8-49 64.3-73.4 11.6-12.9 25.7-44.1 3.1-55.7-24-12.4-46.6 4.2-65 18.9-19 15.3-36.7 32.4-52.6 50.2-17.7-20.8-36.1-41-56.3-60-14.7-13.5-53.9-50.8-75.9-30-21.4 19 16.5 67.9 19 67.3 26.9 21.4 49.6 46.5 71.6 72.8-28.2 36.7-53.9 75.3-82 110.8-1.2 1.2-1.2 2.4-1.2 4.3-11.6 8.6-17.7 28.2-7.3 39.2 19.6 20.8 44.7 8.6 63.6-6.7 30-23.3 54.5-56.3 78.3-87.5 18.4 20.2 37.3 39.2 59.4 55.7 17.7 13.5 45.9 33.7 68.5 20.2 21.4-12.4.6-38.7-9.8-50.3z"/></svg><svg viewBox="0 0 512 512" id="i-features" xmlns="http://www.w3.org/2000/svg"><path d="M511.583 185.969c-21.357-61.348-60.699-105.655-62.363-107.511a7.495 7.495 0 00-4.702-2.441c-.84-.1-85.228-9.949-188.518-9.949-22.793 0-46.443.479-70.292 1.422-4.139.164-7.361 3.652-7.198 7.791s3.653 7.343 7.791 7.198a1805.185 1805.185 0 0152.247-1.318c-18.361 20.049-53.662 60.817-79.022 103.8-26.746-42.127-58.691-78.17-75.08-95.64 13.752-1.34 36.1-3.299 63.996-4.963a7.5 7.5 0 007.04-7.934 7.495 7.495 0 00-7.934-7.04c-47.909 2.858-79.751 6.595-80.067 6.633a7.495 7.495 0 00-4.702 2.441C61.114 80.314 21.774 124.622.416 185.969a7.5 7.5 0 00.35 5.77 998.83 998.83 0 0041.84 76.568 7.496 7.496 0 0010.299 2.537 7.5 7.5 0 002.536-10.299 984.848 984.848 0 01-35.093-63.17c22.553 2.317 71.156 6.797 133.153 9.542 5.119 26.769 28.701 140.161 83.654 272.598-9.641-8.329-21.856-19.392-35.826-33.16-32.314-31.847-80.712-84.933-127.766-156.983a7.499 7.499 0 00-10.38-2.178 7.5 7.5 0 00-2.178 10.38c47.783 73.166 96.958 127.102 129.795 159.464 35.694 35.177 59.78 52.796 60.788 53.529 1.315.956 2.863 1.434 4.411 1.434s3.096-.478 4.411-1.434c1.796-1.306 44.644-32.714 100.708-95.516a7.499 7.499 0 00-.6-10.589 7.498 7.498 0 00-10.589.6c-30.409 34.063-57.172 58.944-75.071 74.416 54.943-132.421 78.521-245.795 83.639-272.562 61.999-2.745 110.603-7.224 133.155-9.542-33.076 65.088-73.379 126.39-119.929 182.386a7.5 7.5 0 1011.535 9.588c50.217-60.407 93.273-126.893 127.974-197.61a7.493 7.493 0 00.351-5.769zm-493.734-3.936c16.106-41.474 40.425-74.276 50.947-87.382 13.537 14.152 48.584 52.348 77.139 96.902-61.672-2.934-108.837-7.485-128.086-9.52zM256 485.634c-55.874-131.218-80.731-245.716-87.097-278.085 27.136 1.031 56.489 1.695 87.097 1.695 30.609 0 59.962-.664 87.099-1.695-6.359 32.357-31.191 146.793-87.099 278.085zm96.47-300.669c-4.681-7.925-9.921-16.148-15.659-24.565a7.5 7.5 0 00-10.421-1.973 7.5 7.5 0 00-1.973 10.421c5.576 8.181 10.658 16.155 15.184 23.823-26.134.961-54.286 1.574-83.601 1.574s-57.466-.612-83.601-1.574c27.811-47.097 69.022-92.688 83.604-108.236 9.063 9.651 28.396 30.876 48.324 56.771a7.49 7.49 0 005.949 2.926 7.5 7.5 0 005.939-12.075c-16.35-21.244-32.344-39.446-42.806-50.897 69.202.729 127.645 5.594 154.139 8.166-16.391 17.473-48.334 53.515-75.078 95.639zm13.594 6.589c28.557-44.558 63.609-82.757 77.143-96.906 10.52 13.088 34.816 45.842 50.944 87.385-19.247 2.035-66.413 6.586-128.087 9.521zM70.775 362.638a7.5 7.5 0 10-3.607-14.559L27.28 357.96a7.5 7.5 0 103.608 14.559zM97.524 400.69l-64.537 37.101a7.5 7.5 0 00-2.764 10.24 7.497 7.497 0 0010.24 2.764L105 413.694c3.591-2.064 4.829-6.649 2.764-10.24s-6.649-4.829-10.24-2.764zM141.625 449.524a7.5 7.5 0 00-10.529 1.284l-18.045 23.057a7.5 7.5 0 0011.813 9.245l18.045-23.057a7.502 7.502 0 00-1.284-10.529zM484.72 354.7l-39.888-9.882a7.5 7.5 0 10-3.607 14.559l39.888 9.882c.606.15 1.212.222 1.81.222a7.5 7.5 0 001.797-14.781zM479.012 434.531l-64.537-37.1a7.501 7.501 0 00-7.476 13.004l64.537 37.1a7.497 7.497 0 0010.24-2.764 7.498 7.498 0 00-2.764-10.24zM380.904 447.548a7.5 7.5 0 00-11.813 9.245l18.045 23.057a7.487 7.487 0 005.912 2.878 7.501 7.501 0 005.901-12.123zM256 43.165a7.5 7.5 0 007.5-7.5V7.5a7.5 7.5 0 00-15 0v28.165a7.5 7.5 0 007.5 7.5zM168.604 46.309a7.496 7.496 0 0010.264 2.676 7.5 7.5 0 002.676-10.264l-9.083-15.489a7.501 7.501 0 00-12.94 7.588zM333.132 48.985a7.497 7.497 0 0010.264-2.676l9.083-15.489a7.501 7.501 0 00-12.94-7.588l-9.083 15.489a7.502 7.502 0 002.676 10.264z"/><circle cx="251.13" cy="395.043" r="7.5"/><circle cx="74.54" cy="231.373" r="7.5"/><circle cx="129.81" cy="109.323" r="7.5"/><circle cx="377.91" cy="103.043" r="7.5"/><circle cx="433.63" cy="235.513" r="7.5"/></svg><svg version="1.1" id="i-fullscreen" x="0" y="0" viewBox="0 0 484.3 484.3" xml:space="preserve" xmlns="http://www.w3.org/2000/svg"><style>.fst0{fill:#fff}</style><path class="fst0" d="M179.9 186.8c-1.8 0-3.6-.7-4.9-2L2 11.8C-.6 9.1-.6 4.7 2.2 2 4.9-.6 9.1-.6 11.8 2l173 173c2.7 2.7 2.7 7.1 0 9.8-1.3 1.3-3.1 2-4.9 2z"/><path class="fst0" d="M6.9 92.7c-3.8 0-6.9-3.1-6.9-6.9V6.9C0 3.1 3.1 0 6.9 0h78.9c3.8 0 6.9 3.1 6.9 6.9s-3.1 6.9-6.9 6.9h-72v72c0 3.8-3.1 6.9-6.9 6.9zM6.9 484.3c-3.8 0-6.9-3.1-6.9-6.9 0-1.8.7-3.6 2-4.9l173-173c2.7-2.7 7.1-2.6 9.8.2 2.6 2.7 2.6 6.9 0 9.6l-173 173c-1.3 1.3-3 2-4.9 2z"/><path class="fst0" d="M85.8 484.3H6.9c-3.8 0-6.9-3.1-6.9-6.9v-78.9c0-3.8 3.1-6.9 6.9-6.9s6.9 3.1 6.9 6.9v72h72c3.8 0 6.9 3.1 6.9 6.9 0 3.8-3.1 6.9-6.9 6.9zM379.6 386.5c-1.8 0-3.6-.7-4.9-2L360.2 370c-2.7-2.7-2.6-7.1.2-9.8 2.7-2.6 6.9-2.6 9.6 0l14.5 14.5c2.7 2.7 2.7 7.1 0 9.8-1.3 1.3-3.1 2-4.9 2zM330.3 337.2c-1.8 0-3.6-.7-4.9-2l-25.9-25.9c-2.7-2.7-2.6-7.1.2-9.8 2.7-2.6 6.9-2.6 9.6 0l25.9 25.9c2.7 2.7 2.7 7.1 0 9.8-1.3 1.3-3.1 2-4.9 2zM477.4 484.3c-1.8 0-3.6-.7-4.9-2l-63.1-63.1c-2.7-2.7-2.6-7.1.2-9.8 2.7-2.6 6.9-2.6 9.6 0l63.1 63.1c2.7 2.7 2.7 7.1 0 9.8-1.3 1.3-3.1 2-4.9 2z"/><path class="fst0" d="M477.4 484.3h-78.9c-3.8 0-6.9-3.1-6.9-6.9 0-3.8 3.1-6.9 6.9-6.9h72v-72c0-3.8 3.1-6.9 6.9-6.9 3.8 0 6.9 3.1 6.9 6.9v78.9c0 3.8-3.1 6.9-6.9 6.9zM304.4 186.8c-3.8 0-6.9-3.1-6.9-6.9 0-1.8.7-3.6 2-4.9l173-173c2.7-2.7 7.1-2.6 9.8.2 2.6 2.7 2.6 6.9 0 9.6l-173 173c-1.3 1.3-3 2-4.9 2z"/><path class="fst0" d="M477.4 92.7c-3.8 0-6.9-3.1-6.9-6.9v-72h-72c-3.8 0-6.9-3.1-6.9-6.9s3.1-6.9 6.9-6.9h78.9c3.8 0 6.9 3.1 6.9 6.9v78.9c0 3.8-3.1 6.9-6.9 6.9z"/></svg><svg viewBox="0 0 512 512" id="i-general" xmlns="http://www.w3.org/2000/svg"><path d="M437.02 74.98C388.667 26.628 324.38 0 256 0S123.333 26.628 74.981 74.98C26.629 123.333 0 187.621 0 256s26.629 132.667 74.981 181.02C123.333 485.372 187.62 512 256 512s132.667-26.628 181.02-74.98C485.371 388.667 512 324.38 512 256s-26.629-132.667-74.98-181.02zm38.649 81.913l-55.326 22.917a7.435 7.435 0 00-4.063 4.065 7.474 7.474 0 000 5.729s0 .007.007.009c8.605 20.804 13.213 42.919 13.213 66.393 0 22.014-4.154 44.54-13.143 66.218a6.058 6.058 0 00-.072.168c-.02.047-.038.095-.057.143-17.539 42.083-51.737 76.255-93.848 93.754-21.09 8.761-43.43 13.21-66.38 13.21-22.96 0-45.29-4.449-66.38-13.21-42.16-17.52-76.39-51.751-93.91-93.912-8.76-21.081-13.21-43.411-13.21-66.372 0-22.909 4.426-45.179 13.139-66.22a9.536 9.536 0 00.145-.349c17.542-42.069 51.735-76.229 93.835-93.725 21.09-8.771 43.42-13.21 66.38-13.21s45.29 4.439 66.38 13.21c33 13.72 61.67 38.011 80.72 68.392a7.485 7.485 0 0010.34 2.37c3.484-2.206 4.578-6.8 2.37-10.34a189.703 189.703 0 00-37.96-43.841 188.559 188.559 0 00-42.85-27.417l20.109-48.545c53.35 24.166 96.396 67.212 120.561 120.563zM256 15c30.002 0 58.74 5.511 85.257 15.573l-20.108 48.544C300.307 71.405 278.428 67.501 256 67.501c-22.428 0-44.307 3.904-65.15 11.616l-20.107-48.544C197.26 20.511 225.999 15 256 15zm-99.108 21.332L177 84.877a189.221 189.221 0 00-54.22 37.895A189.293 189.293 0 0084.875 177l-48.544-20.108c24.165-53.35 67.211-96.396 120.561-120.56zM15 256c0-30.002 5.511-58.741 15.573-85.258l48.542 20.107c-7.711 20.85-11.615 42.729-11.615 65.157 0 22.42 3.904 44.299 11.616 65.143l-48.543 20.108C20.511 314.74 15 286.001 15 256zm21.331 99.107l48.546-20.109c9.457 20.399 22.338 38.654 37.903 54.22 15.532 15.531 33.777 28.427 54.22 37.905l-20.108 48.545c-53.35-24.165-96.396-67.21-120.561-120.561zM256 497c-30.001 0-58.74-5.511-85.257-15.573l20.107-48.542c20.841 7.712 42.711 11.615 65.13 11.615h.04c22.419 0 44.289-3.903 65.13-11.616l20.108 48.543C314.741 491.489 286.002 497 256 497zm99.108-21.332l-20.109-48.545c20.398-9.456 38.656-22.34 54.22-37.905 15.465-15.467 28.386-33.692 37.903-54.22l48.547 20.108c-24.165 53.352-67.211 96.397-120.561 120.562zm77.774-154.519c7.532-20.387 11.618-42.369 11.618-65.144 0-22.438-3.904-44.318-11.616-65.155l48.543-20.108C491.489 197.26 497 225.998 497 256c0 30.001-5.511 58.74-15.573 85.257l-48.545-20.108z"/><path d="M315.03 200.84c-.32-.09-.66-.16-1-.21-.568-.271-3.101-.08-4.841.95-.011 0-.039.029-.06.029-.021.011-.03.021-.05.04h-.011a7.486 7.486 0 00-3.399 8.09l.04-.01-.04.021c.673 2.759 2.684 4.872 5.54 5.6 20.185 5.277 37.22 23.644 37.22 49.3-.117 35.208-37.886 60.001-71.149 44.34-.011 0-.011-.01-.021-.01a9.566 9.566 0 00-4.14-.939c-7.847 0-12.314 9.09-7.551 15.239.133.176 13.2 17.41 13.341 17.58 1.76 2.296.303 5.598-2.75 5.67-44.105 0-41.355.412-42.831-1.04-.978-1.025-1.56-2.904-.24-4.63.021-.027 13.314-17.539 13.33-17.569 5.97-7.769-2.653-18.617-11.65-14.301-28.229 13.394-65.72-2.029-71.02-40.189-2.381-25.584 14.038-47.018 36.28-53.23a7.541 7.541 0 005.48-7.159c.26-27.244 22.616-49.511 49.99-49.511 17.78 0 33.85 9.141 42.979 24.46 2.049 3.458 6.617 4.772 10.271 2.601 3.611-2.131 4.71-6.773 2.609-10.28-21.02-35.347-69.355-42.583-99.77-14.7-11.92 10.931-19.31 25.79-20.8 41.83a65.127 65.127 0 00-30.4 23.43c-11.338 16.037-14.345 35.145-10 53.08.013 0 .017.047.02.061 8.367 33.915 41.234 53.8 73.7 48.51-3.299 4.352-6.824 8.159-6.79 15.09.021 10.041 8.04 18.55 18.44 18.55h40.48c10.373 0 18.419-8.501 18.439-18.55.017-6.929-3.451-10.702-6.82-15.14 25.631 4.272 51.933-7.218 66.021-30.09.03-.04.05-.08.07-.12 22.735-36.875 3.168-85.737-38.917-96.793z"/></svg><svg viewBox="0 0 512 512" id="i-jackpot" xmlns="http://www.w3.org/2000/svg"><path d="M391.181 302.384h-184.82l102.114-56.908c10.674-5.972 14.53-19.517 8.589-30.205l-15.22-27.288c-5.984-10.69-19.542-14.524-30.209-8.558l-42.477 23.669c4.995-10.024 8.104-19.853 9.254-29.399 1.916-15.895-1.691-30.241-10.431-41.488-14.205-18.279-39.008-24.355-60.319-14.778a7.5 7.5 0 006.15 13.682c14.977-6.732 32.382-2.496 42.325 10.3 14.278 18.374 8.801 47.114-14.594 77.071l-9.058 5.047-6.555-11.743a28.305 28.305 0 00-6.438-7.843c1.593-9.538 6.034-21.882 10.944-29.945a7.5 7.5 0 10-12.811-7.801c-5.284 8.677-9.863 20.701-12.166 31.339a28.205 28.205 0 00-18.272 3.232l-2.593 1.446c-1.029-21.641 2.326-39.753 9.886-52.815a7.5 7.5 0 10-12.982-7.514c-10.032 17.334-13.855 40.334-11.4 68.41l-9.057 5.049c-38.268-28.447-75.713-34.263-100.836-15.416-18.188 13.643-25.04 37.786-16.662 58.711 8.548 21.348 29.922 34.348 59.368 37.093l-43.487 24.232c-10.668 5.949-14.515 19.484-8.571 30.178l15.217 27.311c4.055 7.266 11.633 11.367 19.434 11.367a22.13 22.13 0 0010.779-2.8l49.007-27.311v122.16c0 14.686 11.951 26.634 26.641 26.634h250.814c14.69 0 26.642-11.948 26.642-26.634V320.585c-.001-10.036-8.168-18.201-18.206-18.201zm-249.944 19.121l-22.226-39.86 67.68-37.713 22.224 39.856-33.842 18.86a7.46 7.46 0 00-3.179 1.772zm137.712-128.982a7.133 7.133 0 013.494-.913 7.228 7.228 0 016.308 3.69l15.208 27.267c1.928 3.468.668 7.873-2.796 9.811l-79.145 44.107-22.223-39.856zm-124.457 21.349a13.296 13.296 0 016.496-1.692c1.247 0 2.504.174 3.742.525 3.481.988 6.355 3.252 8.098 6.386l6.552 11.737-67.675 37.711-6.562-11.773a13.266 13.266 0 01-1.649-7.515c.007-.072.016-.143.021-.215.078-.83.226-1.66.46-2.481.987-3.47 3.253-6.338 6.386-8.08zM17.468 253.065c-5.861-14.639-1.035-31.554 11.738-41.135 18.395-13.798 46.811-9.408 77.344 11.495l-3.484 1.942a28.188 28.188 0 00-12.232 13.497c-9.904-3.119-18.798-4.831-31.539-6.226a7.5 7.5 0 00-1.633 14.911c14.015 1.534 22.26 3.443 31.023 6.38a28.266 28.266 0 003.357 10.142l6.562 11.773-8.188 4.563c-37.22 4.069-64.441-6.094-72.948-27.342zm31.514 119.854c-3.423 1.894-7.916.627-9.812-2.769l-15.21-27.299c-1.928-3.468-.685-7.857 2.768-9.782l69.371-38.656c.22-.109.433-.227.639-.356l9.171-5.11 22.226 39.86-18.872 10.518c-.04.021-.079.044-.119.066zM120.29 480.87V350.351l59.155-32.967h34.583v66.42a7.5 7.5 0 0015 0v-66.42h56.619v175.12h-56.619v-73.166a7.5 7.5 0 00-15 0v73.166h-82.097c-6.419 0-11.641-5.219-11.641-11.634zm274.096 0c0 6.415-5.222 11.634-11.641 11.634h-82.097v-175.12h90.533c1.737 0 3.205 1.466 3.205 3.201z"/><path d="M363.681 134.355c.1.922 9.618 92.627-22.492 127.435a7.5 7.5 0 1011.026 10.17c36.681-39.764 26.817-135.179 26.379-139.222-.446-4.118-4.144-7.09-8.264-6.649a7.503 7.503 0 00-6.649 8.266zM432.285 123.209c-12.688 19.428-16.719 36.767-16.885 37.496a7.494 7.494 0 007.319 9.154 7.512 7.512 0 007.305-5.82c.036-.156 3.748-15.846 15.112-33.074 14.953-22.669 35.507-37.26 61.09-43.367a7.5 7.5 0 005.554-9.036 7.5 7.5 0 00-9.036-5.554c-29.197 6.969-53.562 24.328-70.459 50.201zM278.436 82.009c.026.182.06.618-.007 1.498l-1.766 21.822c-.251 2.314-.747 7.494 3.481 10.693 4.3 3.254 9.351 1.214 11.584.313l20.044-8.354c.397-.128 1.376-.132 1.738-.02l20.203 8.404c1.271.514 3.549 1.434 6.085 1.434 1.76 0 3.645-.443 5.403-1.774 4.216-3.191 3.723-8.372 3.472-10.692l-1.734-21.791c-.067-.878-.043-1.324-.02-1.522l14.561-17.547c1.682-1.91 5.003-5.777 3.439-10.791-1.587-5.087-6.755-6.37-8.963-6.918l-22.138-5.491-11.643-19.435c-1.071-1.807-3.915-6.605-9.471-6.62h-.026c-5.541 0-8.412 4.782-9.494 6.585l-.003.006-11.553 19.287-.105.178-22.154 5.494c-2.202.55-7.36 1.839-8.942 6.925-1.56 5.013 1.873 9.013 3.433 10.784zm17.412-26.354c5.001-1.236 6.805-3.713 8.355-6.359l8.464-14.138 8.542 14.258c1.543 2.591 3.337 5.018 8.271 6.237l16.443 4.078-10.589 12.76c-3.481 4.114-3.621 8.675-3.351 12.216l1.21 15.196-13.884-5.776c-3.944-1.666-9.268-1.671-13.25-.014l-13.908 5.796 1.232-15.227c.244-3.207.167-7.955-3.312-12.14L279.418 59.73zM508.139 236.899c1.581-1.778 5.02-5.766 3.468-10.781-1.579-5.104-6.765-6.392-8.981-6.942l-22.107-5.483-11.666-19.479c-1.082-1.802-3.953-6.585-9.494-6.585h-.026c-5.536.015-8.38 4.78-9.46 6.601l-11.575 19.276-.11.187-22.109 5.483c-2.214.549-7.4 1.837-8.979 6.941-1.551 5.015 1.887 9.003 3.468 10.78l14.55 17.534c.023.197.048.635-.017 1.486l-1.768 21.819c-.235 2.307-.716 7.53 3.523 10.715 4.291 3.224 9.32 1.193 11.543.294l20.046-8.354c.408-.131 1.41-.131 1.763-.021l20.176 8.405c1.27.513 3.546 1.433 6.083 1.433 1.753 0 3.631-.44 5.386-1.758 4.239-3.185 3.758-8.407 3.523-10.715l-1.765-21.783c-.067-.877-.043-1.323-.02-1.522zm-26.133 8.003c-3.482 4.113-3.622 8.675-3.352 12.227l1.231 15.19-13.91-5.796c-3.961-1.65-9.284-1.649-13.244 0l-13.91 5.796 1.234-15.227c.268-3.515.128-8.077-3.307-12.135l-10.634-12.816 16.455-4.081c4.962-1.24 6.758-3.71 8.303-6.347l8.493-14.151 8.169 13.638.303.513c1.544 2.638 3.341 5.108 8.316 6.35l16.443 4.078zM431.994 79.487c20.689 0 37.521-16.814 37.521-37.481 0-20.683-16.832-37.51-37.521-37.51s-37.521 16.827-37.521 37.51c0 20.667 16.832 37.481 37.521 37.481zm0-59.991c12.418 0 22.521 10.098 22.521 22.51 0 12.396-10.103 22.481-22.521 22.481s-22.52-10.085-22.52-22.481c-.001-12.412 10.102-22.51 22.52-22.51z"/></svg><svg viewBox="0 0 496 496" id="i-mobile" xmlns="http://www.w3.org/2000/svg"><path d="M496 184c0-12.273-4.977-24.29-13.656-32.969L344.969 13.656C336.289 4.976 324.273 0 312 0s-24.29 4.977-32.969 13.656L240 52.688l-24-24L140.687 104l24 24-151.03 151.031C4.976 287.711 0 299.727 0 312s4.977 24.29 13.656 32.969l137.375 137.375C159.711 491.024 171.727 496 184 496s24.29-4.977 32.969-13.656L400 299.313l24 24L475.313 272l-24-24 31.03-31.031C491.024 208.289 496 196.273 496 184zm-99.313 0h16l40 40L232 444.688 51.312 264 272 43.312l40 40v16zm-168-120L208 84.688 195.312 72 216 51.312zm-65.375 40L184 83.312 196.688 96 176 116.688zm42.344 367.031C199.953 476.734 192.062 480 184 480s-15.953-3.266-21.656-8.969L24.969 333.656C19.266 327.953 16 320.062 16 312s3.266-15.953 8.969-21.656L40 275.313 220.688 456zM452.687 272L424 300.688 411.312 288 440 259.312zm18.344-66.344L464 212.687 419.312 168h-16L328 92.687v-16L283.312 32l7.032-7.031C296.047 19.266 303.938 16 312 16s15.953 3.266 21.656 8.969l137.375 137.375C476.734 168.047 480 175.938 480 184s-3.266 15.953-8.969 21.656zm0 0"/><path d="M244.688 152L152 244.688c-5.16 5.16-8 12.015-8 19.312s2.84 14.16 8 19.313L212.688 344c5.16 5.16 12.015 8 19.312 8s14.16-2.84 19.313-8L344 251.312c5.16-5.16 8-12.015 8-19.312s-2.84-14.16-8-19.313L283.312 152C273 141.687 255 141.687 244.688 152zm88 72c2.136 2.145 3.312 4.977 3.312 8s-1.176 5.855-3.313 8L240 332.688c-4.281 4.265-11.719 4.265-16 0L163.312 272c-2.136-2.145-3.312-4.977-3.312-8s1.176-5.855 3.313-8L256 163.312c2.145-2.136 4.977-3.312 8-3.312s5.855 1.176 8 3.313zm0 0"/><path d="M76.688 264L232 419.313 419.313 232 264 76.687zM232 396.688L99.312 264 264 99.312 396.688 232zm0 0M90.34 373.656l11.312-11.316 36 36-11.312 11.316zm0 0M362.344 101.66l11.312-11.312 32 32-11.312 11.312zm0 0M424 144a8 8 0 11-16 0 8 8 0 0116 0zm0 0M360 80a8 8 0 11-16 0 8 8 0 0116 0zm0 0"/><path d="M208 236c0 11 6.398 20.465 15.648 25.04l-13.304 13.304 11.312 11.312 13.305-13.304C239.535 281.602 249 288 260 288c15.441 0 28-12.559 28-28v-52h-52c-15.441 0-28 12.559-28 28zm64 24c0 6.617-5.383 12-12 12s-12-5.383-12-12v-12h-12c-6.617 0-12-5.383-12-12s5.383-12 12-12h36zm0 0"/></svg><svg viewBox="0 0 512 512" id="i-paylines" xmlns="http://www.w3.org/2000/svg"><path class="jst0" d="M17.1 42.7v426.7H0V42.7h17.1z"/><path class="jst1" d="M294.5 66.1c3.3-3.9 10.4-16-4.9-26.4-7-4.3-23.5-9.2-28.6 1.7-10.1 21.6-34.6-2.5-47.3 14.9-3.3 3.3-3.3 8.7 0 12.1l19.4 19.4-5.4 5.3c-2.4 2.1-3.4 5.4-2.6 8.4.8 3.1 3.2 5.5 6.2 6.2 3.1.8 6.3-.3 8.4-2.6l5.4-5.3 19.4 19.4c3.3 3.3 9.2 3.8 12.1 0 17.5-23.3-8.1-22.9 17.9-53.1zm-9.8 1.5l-1.8 1.7c-6.9 6.4-9.6 16.1-7 25.1.3 1.6.6 3.4.8 5.6-.1 4.4-1.5 8.7-4 12.4L221 61c3.7-2.5 8-3.9 12.4-4 1.9.2 3.8.4 5.6.8 9 2.6 18.8-.1 25.2-7l2.7-2.7c2.7-2.7 6.4-4 10.2-3.7 3.9.3 7.5 2.4 9.8 5.6 3.6 5.6 2.7 13-2.2 17.6zM116.2 184c3.3-3.9 10.4-16-4.9-26.4-7-4.3-23.5-9.2-28.6 1.7-10.1 21.6-34.6-2.5-47.3 14.9-3.3 3.3-3.3 8.7 0 12.1l19.4 19.4-5.4 5.3c-2.4 2.1-3.4 5.4-2.6 8.4.8 3.1 3.2 5.5 6.2 6.2 3.1.8 6.3-.3 8.4-2.6l5.4-5.3 19.4 19.4c3.3 3.3 9.2 3.8 12.1 0 17.5-23.3-8.2-22.9 17.9-53.1zm-9.8 1.5l-1.8 1.7c-6.9 6.4-9.6 16.1-7 25.1.3 1.6.6 3.4.8 5.6-.1 4.4-1.5 8.7-4 12.4l-51.7-51.4c3.7-2.5 8-3.9 12.4-4 1.9.2 3.8.4 5.6.8 9 2.6 18.8-.1 25.2-7l2.7-2.7c2.7-2.7 6.4-4 10.2-3.7 3.9.3 7.5 2.4 9.8 5.6 3.6 5.7 2.7 13-2.2 17.6zM294.5 419.6c3.3-3.9 10.4-16-4.9-26.4-7-4.3-23.5-9.2-28.6 1.7-10.1 21.6-34.6-2.5-47.3 14.9-3.3 3.3-3.3 8.7 0 12.1l19.4 19.4-5.4 5.3c-2.4 2.1-3.4 5.4-2.6 8.4.8 3.1 3.2 5.5 6.2 6.2 3.1.8 6.3-.3 8.4-2.6l5.4-5.3 19.4 19.4c3.3 3.3 9.2 3.8 12.1 0 17.5-23.3-8.1-22.9 17.9-53.1zm-9.8 1.5l-1.8 1.7c-6.9 6.4-9.6 16.1-7 25.1.3 1.6.6 3.4.8 5.6-.1 4.4-1.5 8.7-4 12.4L221 414.5c3.7-2.5 8-3.9 12.4-4 1.9.2 3.8.4 5.6.8 9 2.6 18.8-.1 25.2-7l2.7-2.7c2.7-2.7 6.4-4 10.2-3.7 3.9.3 7.5 2.4 9.8 5.6 3.6 5.6 2.7 13-2.2 17.6zM471 419.6c3.3-3.9 10.4-16-4.9-26.4-7-4.3-23.5-9.2-28.6 1.7-10.1 21.6-34.6-2.5-47.3 14.9-3.3 3.3-3.3 8.7 0 12.1l19.4 19.4-5.4 5.3c-2.4 2.1-3.4 5.4-2.6 8.4.8 3.1 3.2 5.5 6.2 6.2 3.1.8 6.3-.3 8.4-2.6l5.4-5.3 19.4 19.4c3.3 3.3 9.2 3.8 12.1 0 17.5-23.3-8.1-22.9 17.9-53.1zm-9.8 1.5l-1.8 1.7c-6.9 6.4-9.6 16.1-7 25.1.3 1.6.6 3.4.8 5.6-.1 4.4-1.5 8.7-4 12.4l-51.7-51.4c3.7-2.5 8-3.9 12.4-4 1.9.2 3.8.4 5.6.8 9 2.6 18.8-.1 25.2-7l2.7-2.7c2.7-2.7 6.4-4 10.2-3.7 3.9.3 7.5 2.4 9.8 5.6 3.6 5.6 2.7 13-2.2 17.6zM202.9 187.9c-3.9.9-6.7 4.3-6.7 8.3s2.8 7.5 6.7 8.3c1.6 1.8 3.1 3.7 4.5 5.6 8 10.8 21.5 28.7 48.5 28.7s40.5-18 48.5-28.7c1.4-2 2.9-3.8 4.5-5.6 3.9-.9 6.7-4.3 6.7-8.3s-2.8-7.5-6.7-8.3c-1.6-1.8-3.1-3.7-4.5-5.6-8-10.7-21.5-28.7-48.5-28.7s-40.5 18-48.5 28.7c-1.3 2-2.9 3.8-4.5 5.6zm11.7 3.9c8.8-11.8 19.8-26.4 42.2-26.4s33.3 14.7 42.2 26.4c1.2 1.6 2.3 3.1 3.4 4.5-1.1 1.4-2.3 3-3.4 4.5-8.8 11.8-19.8 26.4-42.2 26.4s-33.3-14.7-42.2-26.4c-1.2-1.6-2.3-3.1-3.4-4.5 1.1-1.5 2.3-3 3.4-4.5zM33.2 298.9c-3.9.9-6.7 4.3-6.7 8.3s2.8 7.5 6.7 8.3c1.6 1.8 3.1 3.7 4.5 5.6 8 10.8 21.5 28.7 48.5 28.7s40.5-18 48.5-28.7c1.4-2 2.9-3.8 4.5-5.6 3.9-.9 6.7-4.3 6.7-8.3s-2.8-7.5-6.7-8.3c-1.6-1.8-3.1-3.7-4.5-5.6-8-10.7-21.5-28.7-48.5-28.7s-40.5 18-48.5 28.7c-1.3 1.9-2.9 3.8-4.5 5.6zm11.7 3.8c8.8-11.8 19.8-26.4 42.2-26.4s33.3 14.7 42.2 26.4c1.2 1.6 2.3 3.1 3.4 4.5-1.1 1.4-2.3 3-3.4 4.5-8.8 11.8-19.8 26.4-42.2 26.4s-33.3-14.7-42.2-26.4c-1.2-1.6-2.3-3.1-3.4-4.5 1.1-1.4 2.3-3 3.4-4.5zM373.6 69.6c-3.9.9-6.7 4.3-6.7 8.3s2.8 7.5 6.7 8.3c1.6 1.8 3.1 3.7 4.5 5.6 8 10.8 21.5 28.7 48.5 28.7s40.5-18 48.5-28.7c1.4-2 2.9-3.8 4.5-5.6 3.9-.9 6.7-4.3 6.7-8.3s-2.8-7.5-6.7-8.3c-1.6-1.8-3.1-3.7-4.5-5.6-8-10.7-21.5-28.7-48.5-28.7s-40.5 18-48.5 28.7c-1.4 1.9-2.9 3.8-4.5 5.6zm11.7 3.8c8.8-11.8 19.8-26.4 42.2-26.4 22.4 0 33.3 14.7 42.2 26.4 1.2 1.6 2.3 3.1 3.4 4.5-1.1 1.4-2.3 3-3.4 4.5-8.8 11.8-19.8 26.4-42.2 26.4-22.4 0-33.3-14.7-42.2-26.4-1.2-1.6-2.3-3.1-3.4-4.5 1.1-1.4 2.2-2.9 3.4-4.5zM332.8 443.7c0 4.7 3.8 8.5 8.5 8.5s8.5-3.8 8.5-8.5v-25.6c0-4.7-3.8-8.5-8.5-8.5s-8.5 3.8-8.5 8.5v25.6zM332.8 384c0 4.7 3.8 8.5 8.5 8.5s8.5-3.8 8.5-8.5v-25.6c0-4.7-3.8-8.5-8.5-8.5s-8.5 3.8-8.5 8.5V384zM332.8 324.3c0 4.7 3.8 8.5 8.5 8.5s8.5-3.8 8.5-8.5v-25.6c0-4.7-3.8-8.5-8.5-8.5s-8.5 3.8-8.5 8.5v25.6zM332.8 264.5c0 4.7 3.8 8.5 8.5 8.5s8.5-3.8 8.5-8.5v-25.6c0-4.7-3.8-8.5-8.5-8.5s-8.5 3.8-8.5 8.5v25.6zM332.8 204.8c0 4.7 3.8 8.5 8.5 8.5s8.5-3.8 8.5-8.5v-25.6c0-4.7-3.8-8.5-8.5-8.5s-8.5 3.8-8.5 8.5v25.6zM332.8 145.1c0 4.7 3.8 8.5 8.5 8.5s8.5-3.8 8.5-8.5v-25.6c0-4.7-3.8-8.5-8.5-8.5s-8.5 3.8-8.5 8.5v25.6zM341.3 93.9c4.7 0 8.5-3.8 8.5-8.5V59.7c0-4.7-3.8-8.5-8.5-8.5s-8.5 3.8-8.5 8.5v25.6c0 4.7 3.8 8.6 8.5 8.6zM162.1 443.7c0 4.7 3.8 8.5 8.5 8.5s8.5-3.8 8.5-8.5v-25.6c0-4.7-3.8-8.5-8.5-8.5s-8.5 3.8-8.5 8.5v25.6zM162.1 384c0 4.7 3.8 8.5 8.5 8.5s8.5-3.8 8.5-8.5v-25.6c0-4.7-3.8-8.5-8.5-8.5s-8.5 3.8-8.5 8.5V384zM162.1 324.3c0 4.7 3.8 8.5 8.5 8.5s8.5-3.8 8.5-8.5v-25.6c0-4.7-3.8-8.5-8.5-8.5s-8.5 3.8-8.5 8.5v25.6zM162.1 264.5c0 4.7 3.8 8.5 8.5 8.5s8.5-3.8 8.5-8.5v-25.6c0-4.7-3.8-8.5-8.5-8.5s-8.5 3.8-8.5 8.5v25.6zM162.1 204.8c0 4.7 3.8 8.5 8.5 8.5s8.5-3.8 8.5-8.5v-25.6c0-4.7-3.8-8.5-8.5-8.5s-8.5 3.8-8.5 8.5v25.6zM162.1 145.1c0 4.7 3.8 8.5 8.5 8.5s8.5-3.8 8.5-8.5v-25.6c0-4.7-3.8-8.5-8.5-8.5s-8.5 3.8-8.5 8.5v25.6zM170.7 93.9c4.7 0 8.5-3.8 8.5-8.5V59.7c0-4.7-3.8-8.5-8.5-8.5s-8.5 3.8-8.5 8.5v25.6c-.1 4.7 3.8 8.6 8.5 8.6zM475.4 162.5c-3.3-3.3-8.7-3.3-12.1 0-4.9 5.6-12.1 8.6-19.6 8.1 0-10.3-6.2-19.7-15.7-23.7s-20.5-1.8-27.9 5.4c-7.3 7.3-9.6 18.3-5.7 27.8-10.2 2.7-17.8 11.5-18.9 22-1.1 10.5 4.4 20.7 13.9 25.5 9.5 4.8 20.9 3.2 28.7-3.9 10.2 9.2 25.9 8.6 35.5-1.3s9.5-25.6-.1-35.5c8.4-1.9 16-6.2 21.9-12.4 3.3-3.3 3.3-8.7 0-12zm-57.1-8.1c7.4 0 13.4 6 13.4 13.4s-6 13.4-13.4 13.4-13.4-6-13.4-13.4 6-13.4 13.4-13.4zm-18.6 64.2c-7.4 0-13.4-6-13.4-13.4s6-13.4 13.4-13.4 13.4 6 13.4 13.4-6 13.4-13.4 13.4zm37.4-1c-7.4 0-13.4-6-13.4-13.4s6-13.4 13.4-13.4 13.4 6 13.4 13.4-6 13.4-13.4 13.4zM475.4 282c-3.3-3.3-8.7-3.3-12.1 0-4.9 5.6-12.1 8.6-19.6 8.1 0-10.3-6.2-19.7-15.7-23.7s-20.5-1.8-27.9 5.4c-7.3 7.3-9.6 18.3-5.7 27.8-10.2 2.7-17.8 11.5-18.9 22-1.1 10.5 4.4 20.7 13.9 25.5 9.5 4.8 20.9 3.2 28.7-3.9 10.2 9.2 25.9 8.6 35.5-1.3s9.5-25.6-.1-35.5c8.4-1.9 16-6.2 21.9-12.4 3.3-3.2 3.3-8.6 0-12zm-57.1-8c7.4 0 13.4 6 13.4 13.4s-6 13.4-13.4 13.4-13.4-6-13.4-13.4 6-13.4 13.4-13.4zm-18.6 64.1c-7.4 0-13.4-6-13.4-13.4s6-13.4 13.4-13.4 13.4 6 13.4 13.4-6 13.4-13.4 13.4zm37.4-1c-7.4 0-13.4-6-13.4-13.4s6-13.4 13.4-13.4 13.4 6 13.4 13.4-6 13.4-13.4 13.4zM125.5 393.1c-3.3-3.3-8.7-3.3-12.1 0-4.9 5.6-12.1 8.6-19.6 8.1 0-10.3-6.2-19.7-15.7-23.7s-20.5-1.8-27.9 5.4c-7.3 7.3-9.6 18.3-5.7 27.8-10.2 2.7-17.8 11.5-18.9 22-1.1 10.5 4.4 20.7 13.9 25.5 9.5 4.8 20.9 3.2 28.7-3.9 10.2 9.2 25.9 8.6 35.5-1.3s9.5-25.6-.1-35.5c8.4-1.9 16-6.2 21.9-12.4 3.4-3.3 3.4-8.7 0-12zM68.4 385c7.4 0 13.4 6 13.4 13.4s-6 13.4-13.4 13.4-13.4-6-13.4-13.4c.1-7.4 6.1-13.4 13.4-13.4zm-18.5 64.1c-7.4 0-13.4-6-13.4-13.4s6-13.4 13.4-13.4 13.4 6 13.4 13.4c0 7.5-6 13.4-13.4 13.4zm37.4-1c-7.4 0-13.4-6-13.4-13.4s6-13.4 13.4-13.4 13.4 6 13.4 13.4c0 7.5-6 13.4-13.4 13.4zM125.5 51.6c-3.3-3.3-8.7-3.3-12.1 0-4.9 5.6-12.1 8.6-19.6 8.1 0-10.3-6.2-19.7-15.7-23.7s-20.5-1.8-27.9 5.4c-7.3 7.3-9.6 18.3-5.7 27.8-10.2 2.7-17.8 11.5-18.9 22-1.1 10.5 4.4 20.7 13.9 25.5 9.5 4.8 20.9 3.2 28.7-3.9 10.2 9.2 25.9 8.6 35.5-1.3s9.5-25.6-.1-35.5c8.4-1.9 16-6.2 21.9-12.4 3.4-3.3 3.4-8.7 0-12zm-57.1-8.1c7.4 0 13.4 6 13.4 13.4s-6 13.4-13.4 13.4S55 64.3 55 56.9c.1-7.4 6.1-13.4 13.4-13.4zm-18.5 64.2c-7.4 0-13.4-6-13.4-13.4s6-13.4 13.4-13.4 13.4 6 13.4 13.4-6 13.4-13.4 13.4zm37.4-1c-7.4 0-13.4-6-13.4-13.4s6-13.4 13.4-13.4 13.4 6 13.4 13.4-6 13.4-13.4 13.4zM8.5 119.5c2.3 0 4.4-.9 6.1-2.5 3.3-3.4 3.3-8.8 0-12.1l-1.3-1c-.5-.3-1-.6-1.5-.8-.5-.2-1-.4-1.5-.5-.6-.1-1.1-.2-1.7-.2-2.3 0-4.4.9-6.1 2.5-.8.8-1.4 1.8-1.8 2.8-1.3 3.2-.6 6.8 1.8 9.3.8.8 1.8 1.4 2.8 1.8 1 .4 2.1.7 3.2.7z"/><path class="jst1" d="M469.3 0H42.7C19.1 0 0 19.1 0 42.7v34.1c0 4.7 3.8 8.5 8.5 8.5s8.5-3.8 8.5-8.5V42.7c0-14.1 11.5-25.6 25.6-25.6h119.5v8.5c0 4.7 3.8 8.5 8.5 8.5s8.5-3.8 8.5-8.5v-8.5h153.6v8.5c0 4.7 3.8 8.5 8.5 8.5s8.5-3.8 8.5-8.5v-8.5h119.5c14.1 0 25.6 11.5 25.6 25.6v426.7c0 14.1-11.5 25.6-25.6 25.6H349.9v-17.1c0-4.7-3.8-8.5-8.5-8.5s-8.5 3.8-8.5 8.5V495H179.2v-17.1c0-4.7-3.8-8.5-8.5-8.5s-8.5 3.8-8.5 8.5V495H42.7c-14.1 0-25.6-11.5-25.6-25.6V145.1c0-4.7-3.8-8.5-8.5-8.5s-8.5 3.8-8.5 8.5v324.3C0 492.9 19.1 512 42.7 512h426.7c23.6 0 42.6-19.1 42.7-42.7V42.7C512 19.1 492.9 0 469.3 0z"/></svg><svg viewBox="0 0 469.3 512" id="i-play" xmlns="http://www.w3.org/2000/svg"><path d="M66.1 507.3c69.9-34.1 169.1-91.2 256.5-141.6 45.8-26.4 89.1-51.3 122-69.3 15.5-8.5 24.8-23.6 24.8-40.4s-9.3-31.9-24.8-40.4c-32.9-18-76.1-42.9-121.9-69.3C235.2 95.9 136 38.8 66.1 4.7 59.7 1.6 53 0 46.1 0 20.7 0 0 20.5 0 45.7v420.6C0 491.5 20.7 512 46.1 512c6.9 0 13.6-1.6 20-4.7z"/></svg><svg viewBox="-26 -26 852.5 852" id="i-reels" xmlns="http://www.w3.org/2000/svg"><path d="M770.824 451.332V209.125c18.348-6.488 29.352-25.25 26.07-44.434-3.292-19.183-19.925-33.207-39.39-33.207-19.457 0-36.094 14.024-39.387 33.207-3.293 19.184 7.723 37.946 26.07 44.434v189.277a65.903 65.903 0 00-39.964-13.664h-13.32V251.535C690.745 111.828 577.526-1.395 437.82-1.555h-79.925c-139.707.16-252.926 113.383-253.082 253.09v249.738l-105 196.88c-.122.234-.165.488-.27.73-.11.234-.258.64-.371.969a13.454 13.454 0 00-.844 4.191c-.027.133-.058.254-.078.383v53.277c0 22.07 17.89 39.961 39.96 39.961h719.294c22.074 0 39.96-17.89 39.96-39.96v-53.278c-.019-.13-.05-.25-.077-.383a13.454 13.454 0 00-.844-4.191 10.755 10.755 0 00-.371-.97c-.145-.323-.145-.495-.27-.73l-96.109-180.215h4.43c36.77-.042 66.558-29.832 66.601-66.605zm-13.32-293.039c7.36 0 13.32 5.969 13.32 13.32 0 7.36-5.96 13.32-13.32 13.32-7.356 0-13.317-5.96-13.317-13.32 0-7.351 5.961-13.32 13.317-13.32zm-626.05 93.242c.14-125 101.44-226.308 226.44-226.445h79.926c125 .137 226.305 101.445 226.446 226.445v133.203H531.059V155.75c-.02-20.656-16.758-37.39-37.414-37.418H302.07c-20.648.027-37.394 16.762-37.414 37.418v228.988H131.453zm372.968-95.785v228.988H291.3V155.75c0-5.953 4.82-10.777 10.77-10.777h191.574c5.953 0 10.777 4.824 10.777 10.777zM131.453 411.379h532.813V491.3H131.453zm639.371 346.324c0 7.356-5.96 13.317-13.32 13.317H38.21c-7.356 0-13.32-5.961-13.32-13.317v-39.96h745.933zm-8.883-66.601H33.773l92.356-173.164h543.457zM690.902 491.3v-79.922h13.32c22.071 0 39.965 17.89 39.965 39.953 0 22.074-17.894 39.969-39.964 39.969zm0 0"/><path d="M198.055 571.223h-53.282c-22.074 0-39.96 17.886-39.96 39.96 0 22.067 17.886 39.954 39.96 39.954h53.282c22.07 0 39.96-17.887 39.96-39.953 0-22.075-17.89-39.961-39.96-39.961zm0 53.277h-53.282c-7.355 0-13.32-5.96-13.32-13.316 0-7.364 5.965-13.325 13.32-13.325h53.282c7.351 0 13.324 5.961 13.324 13.325 0 7.355-5.973 13.316-13.324 13.316zm0 0M371.215 571.223h-53.277c-22.07 0-39.965 17.886-39.965 39.96 0 22.067 17.894 39.954 39.965 39.954h53.277c22.07 0 39.969-17.887 39.969-39.953 0-22.075-17.899-39.961-39.97-39.961zm0 53.277h-53.277c-7.36 0-13.32-5.96-13.32-13.316 0-7.364 5.96-13.325 13.32-13.325h53.277c7.36 0 13.32 5.961 13.32 13.325 0 7.355-5.96 13.316-13.32 13.316zm0 0M544.383 571.223h-53.278c-22.074 0-39.968 17.886-39.968 39.96 0 22.067 17.894 39.954 39.968 39.954h53.278c22.066 0 39.957-17.887 39.957-39.953 0-22.075-17.89-39.961-39.957-39.961zm0 53.277h-53.278c-7.363 0-13.328-5.96-13.328-13.316 0-7.364 5.965-13.325 13.328-13.325h53.278c7.351 0 13.316 5.961 13.316 13.325 0 7.355-5.965 13.316-13.316 13.316zm0 0M610.988 611.184c0 22.066 17.887 39.953 39.953 39.953 22.075 0 39.961-17.887 39.961-39.953 0-22.075-17.886-39.961-39.96-39.961-22.067 0-39.954 17.886-39.954 39.96zm53.278 0c0 7.355-5.961 13.316-13.325 13.316-7.355 0-13.316-5.96-13.316-13.316 0-7.364 5.96-13.325 13.316-13.325 7.364 0 13.325 5.961 13.325 13.325zm0 0M198.055 451.332c0 7.363-5.965 13.328-13.32 13.328s-13.317-5.965-13.317-13.328c0-7.352 5.96-13.316 13.316-13.316s13.32 5.964 13.32 13.316zm0 0M251.336 451.332c0 7.363-5.961 13.328-13.32 13.328-7.356 0-13.32-5.965-13.32-13.328 0-7.352 5.964-13.316 13.32-13.316 7.359 0 13.32 5.964 13.32 13.316zm0 0M304.617 451.332c0 7.363-5.965 13.328-13.316 13.328-7.364 0-13.328-5.965-13.328-13.328 0-7.352 5.964-13.316 13.328-13.316 7.351 0 13.316 5.964 13.316 13.316zm0 0M357.895 451.332c0 7.363-5.961 13.328-13.317 13.328-7.36 0-13.32-5.965-13.32-13.328 0-7.352 5.96-13.316 13.32-13.316 7.356 0 13.317 5.964 13.317 13.316zm0 0M411.184 451.332c0 7.363-5.973 13.328-13.325 13.328-7.355 0-13.324-5.965-13.324-13.328 0-7.352 5.969-13.316 13.324-13.316 7.352 0 13.325 5.964 13.325 13.316zm0 0M464.46 451.332c0 7.363-5.96 13.328-13.323 13.328-7.348 0-13.317-5.965-13.317-13.328 0-7.352 5.97-13.316 13.317-13.316 7.363 0 13.324 5.964 13.324 13.316zm0 0M517.742 451.332c0 7.363-5.965 13.328-13.32 13.328s-13.317-5.965-13.317-13.328c0-7.352 5.961-13.316 13.317-13.316s13.32 5.964 13.32 13.316zm0 0M571.02 451.332c0 7.363-5.961 13.328-13.32 13.328-7.356 0-13.317-5.965-13.317-13.328 0-7.352 5.96-13.316 13.316-13.316 7.36 0 13.32 5.964 13.32 13.316zm0 0M624.305 451.332c0 7.363-5.965 13.328-13.317 13.328-7.363 0-13.328-5.965-13.328-13.328 0-7.352 5.965-13.316 13.328-13.316 7.352 0 13.317 5.964 13.317 13.316zm0 0M104.813 65.05c5.39 0 10.242-3.241 12.3-8.222a13.312 13.312 0 00-2.883-14.512l-26.636-26.64c-5.227-5.051-13.54-4.977-18.68.16-5.129 5.137-5.203 13.45-.156 18.672l26.64 26.64a13.278 13.278 0 009.415 3.903zm0 0M38.21 91.691c-7.355 0-13.32 5.965-13.32 13.325 0 7.351 5.965 13.316 13.32 13.316h26.645c7.352 0 13.317-5.965 13.317-13.316 0-7.36-5.965-13.325-13.317-13.325zm0 0M597.66 358.098a39.788 39.788 0 0029.574-66.602c13.856-15.059 13.856-38.223 0-53.281 14.512-15.965 13.727-40.57-1.77-55.578-15.495-15.016-40.105-15.016-55.609 0-15.492 15.008-16.277 39.613-1.765 55.578-13.856 15.058-13.856 38.222 0 53.281-10.64 11.672-13.38 28.524-6.973 42.953a39.79 39.79 0 0036.543 23.649zm0-159.848c7.356 0 13.328 5.965 13.328 13.324 0 7.356-5.972 13.317-13.328 13.317-7.351 0-13.32-5.961-13.32-13.317 0-7.36 5.969-13.324 13.32-13.324zm0 53.285c7.356 0 13.328 5.961 13.328 13.32 0 7.352-5.972 13.32-13.328 13.32-7.351 0-13.32-5.968-13.32-13.32 0-7.359 5.969-13.32 13.32-13.32zm0 53.281c7.356 0 13.328 5.965 13.328 13.317 0 7.363-5.972 13.328-13.328 13.328-7.351 0-13.32-5.965-13.32-13.328 0-7.352 5.969-13.317 13.32-13.317zm0 0M198.055 171.613c-15.793-.07-30.137 9.203-36.54 23.637a39.796 39.796 0 006.965 42.965c-13.851 15.058-13.851 38.222 0 53.281-14.511 15.965-13.722 40.563 1.77 55.578 15.5 15.012 40.11 15.012 55.61 0 15.495-15.015 16.28-39.613 1.765-55.578 13.855-15.059 13.855-38.223 0-53.281a39.79 39.79 0 006.973-42.965 39.788 39.788 0 00-36.543-23.637zm0 159.848c-7.356 0-13.32-5.965-13.32-13.328 0-7.352 5.964-13.317 13.32-13.317 7.351 0 13.324 5.965 13.324 13.317 0 7.363-5.973 13.328-13.324 13.328zm0-53.285c-7.356 0-13.32-5.969-13.32-13.32 0-7.36 5.964-13.32 13.32-13.32 7.351 0 13.324 5.96 13.324 13.32 0 7.351-5.973 13.32-13.324 13.32zm0-53.285c-7.356 0-13.32-5.961-13.32-13.317 0-7.36 5.964-13.324 13.32-13.324 7.351 0 13.324 5.965 13.324 13.324 0 7.356-5.973 13.317-13.324 13.317zm0 0M424.5 238.215a48.238 48.238 0 00-26.64 8.539 41.064 41.064 0 01-7.34 3.766 18.712 18.712 0 01-1.04-13.196c4.38-15.61 18.82-26.226 35.02-25.75a13.2 13.2 0 009.352-3.918 13.158 13.158 0 003.804-9.406c-.074-7.383-6.078-13.32-13.465-13.316-28.453-.313-53.472 18.777-60.687 46.296a47.649 47.649 0 00-.094 22.649c-18.672 2.637-32.46 18.762-32.152 37.617 0 27.383 32.367 53.281 66.601 53.281 33.086 0 66.602-18.3 66.602-53.28 0-35.352-13.453-53.282-39.961-53.282zm-26.64 79.918c-20.208 0-39.965-15.25-39.965-26.637 0-3.637 0-13.32 26.64-13.32a48.784 48.784 0 0027.059-8.617 22.653 22.653 0 0112.906-4.704c9.203 0 13.32 3.848 13.32 26.641 0 21.07-26.129 26.637-39.96 26.637zm0 0"/></svg><svg viewBox="-26 -26 852 852.499" id="i-rtp" xmlns="http://www.w3.org/2000/svg"><path d="M618.531-.34l-26.64 13.317c-6.582 3.293-9.254 11.293-5.965 17.878 3.293 6.586 11.289 9.254 17.875 5.965l26.64-13.32a13.344 13.344 0 007.348-11.113c.29-4.754-1.98-9.301-5.957-11.922a13.32 13.32 0 00-13.3-.805zm0 0M417.316-.34c-6.574-3.293-14.586-.613-17.867 5.961-3.293 6.586-.62 14.59 5.961 17.879l26.637 13.32a13.352 13.352 0 0013.308-.804 13.333 13.333 0 005.954-11.918 13.334 13.334 0 00-7.352-11.121zm0 0M577.867 158.098H457.988c-62.531 0-113.222 50.687-113.222 113.222 0 62.524 50.691 113.223 113.222 113.223h119.88c62.53 0 113.218-50.7 113.218-113.223 0-62.535-50.688-113.222-113.219-113.222zm0 199.804H457.988c-47.816 0-86.582-38.77-86.582-86.582 0-47.816 38.766-86.578 86.582-86.578h119.88c47.82 0 86.581 38.762 86.581 86.578 0 47.813-38.761 86.582-86.582 86.582zm0 0M691.086 371.223c0 7.355-5.965 13.32-13.316 13.32-7.36 0-13.32-5.965-13.32-13.32 0-7.36 5.96-13.32 13.32-13.32 7.351 0 13.316 5.96 13.316 13.32zm0 0M371.406 371.223c0 7.355-5.969 13.32-13.32 13.32-7.36 0-13.32-5.965-13.32-13.32 0-7.36 5.96-13.32 13.32-13.32 7.351 0 13.32 5.96 13.32 13.32zm0 0"/><path d="M477.969 317.938c0 7.363-5.965 13.324-13.32 13.324-7.356 0-13.329-5.961-13.329-13.325 0-7.351 5.973-13.316 13.328-13.316 7.356 0 13.32 5.965 13.32 13.316zm0 0M531.25 317.938c0 7.363-5.96 13.324-13.324 13.324-7.356 0-13.317-5.961-13.317-13.325 0-7.351 5.961-13.316 13.317-13.316 7.363 0 13.324 5.965 13.324 13.316zm0 0M584.527 317.938c0 7.363-5.96 13.324-13.324 13.324-7.351 0-13.316-5.961-13.316-13.325 0-7.351 5.965-13.316 13.316-13.316 7.363 0 13.324 5.965 13.324 13.316zm0 0M371.406 171.418c0 7.36-5.969 13.324-13.32 13.324-7.36 0-13.32-5.965-13.32-13.324 0-7.352 5.96-13.32 13.32-13.32 7.351 0 13.32 5.968 13.32 13.32zm0 0M691.086 171.418c0 7.36-5.965 13.324-13.316 13.324-7.36 0-13.32-5.965-13.32-13.324 0-7.352 5.96-13.32 13.32-13.32 7.351 0 13.316 5.968 13.316 13.32zm0 0M464.648 597.66h106.555c7.363 0 13.324 5.961 13.324 13.32 0 7.356-5.96 13.317-13.324 13.317-7.351 0-13.316 5.973-13.316 13.324 0 7.356 5.965 13.32 13.316 13.32 22.074 0 39.961-17.89 39.961-39.96s-17.887-39.961-39.96-39.961H464.647c-22.066 0-39.964 17.89-39.964 39.96s17.898 39.961 39.964 39.961c7.356 0 13.32-5.964 13.32-13.32 0-7.351-5.964-13.324-13.32-13.324-7.355 0-13.328-5.961-13.328-13.317 0-7.359 5.973-13.32 13.328-13.32zm0 0M577.16 702.89l26.64-13.32a13.332 13.332 0 007.352-11.12 13.35 13.35 0 00-5.96-11.923 13.348 13.348 0 00-13.301-.804l-26.637 13.328c-6.586 3.281-9.254 11.293-5.973 17.87 3.29 6.583 11.293 9.259 17.88 5.97zm0 0M445.371 678.98l-26.64 13.317c-6.586 3.293-9.254 11.293-5.965 17.879 3.289 6.586 11.289 9.254 17.87 5.965l26.645-13.32c6.586-3.29 9.254-11.294 5.969-17.868-3.293-6.586-11.293-9.258-17.879-5.973zm0 0M519.262 790.094a13.272 13.272 0 007.699 6.687 13.297 13.297 0 0010.172-.718l26.637-13.32a13.305 13.305 0 007.351-11.118 13.349 13.349 0 00-5.95-11.922 13.354 13.354 0 00-13.308-.805l-26.64 13.32a13.356 13.356 0 00-6.688 7.704 13.298 13.298 0 00.727 10.172zm0 0M485.336 729.527l26.64 13.325c6.579 3.285 14.583.617 17.872-5.97 3.293-6.585.617-14.585-5.965-17.878l-26.64-13.317c-6.587-3.285-14.59-.617-17.876 5.97-3.289 6.577-.617 14.581 5.969 17.87zm0 0"/><path d="M537.2 652.344l-26.641-13.328c-6.582-3.282-14.582-.614-17.875 5.972-3.29 6.582-.618 14.582 5.968 17.875l26.641 13.317a13.311 13.311 0 0013.3-.805 13.314 13.314 0 005.954-11.922 13.31 13.31 0 00-7.348-11.11zm0 0M464.648 211.383c-7.355 0-13.328 5.96-13.328 13.316v39.961c0 7.36 5.973 13.32 13.328 13.32 7.356 0 13.32-5.96 13.32-13.32V224.7c0-7.356-5.964-13.317-13.32-13.317zm0 0M517.926 211.383c-7.356 0-13.317 5.96-13.317 13.316v39.961c0 7.36 5.961 13.32 13.317 13.32 7.363 0 13.324-5.96 13.324-13.32V224.7c0-7.356-5.96-13.317-13.324-13.317zm0 0M571.203 211.383c-7.351 0-13.316 5.96-13.316 13.316v39.961c0 7.36 5.965 13.32 13.316 13.32 7.363 0 13.324-5.96 13.324-13.32V224.7c0-7.356-5.96-13.317-13.324-13.317zm0 0"/><path d="M784.324 158.098c-7.355 0-13.32 5.968-13.32 13.32v113.969a52.675 52.675 0 00-26.64-7.407V144.777c0-22.062-17.887-39.957-39.954-39.957H597.844V91.5c0-22.07-17.887-39.957-39.957-39.957v-13.32c0-22.07-17.887-39.97-39.961-39.97-22.067 0-39.957 17.9-39.957 39.97v13.32c-22.07 0-39.965 17.887-39.965 39.957v13.32H331.449c-22.074 0-39.965 17.895-39.965 39.957v173.16H131.648c-22.074 0-39.964 17.895-39.964 39.965v28.504l-65.72 21.535C4.997 414.821-6.43 437.387.446 458.363l91.239 278.352v20.789c0 22.066 17.89 39.957 39.964 39.957h346.32c7.352 0 13.321-5.961 13.321-13.32s-5.969-13.32-13.32-13.32H358.086c-7.36 0-13.32-5.966-13.32-13.317V544.383h346.32v213.12c0 7.352-5.965 13.317-13.316 13.317h-53.29c-7.347 0-13.316 5.961-13.316 13.32s5.969 13.32 13.316 13.32h53.29c22.07 0 39.957-17.89 39.957-39.956V480.922l13.984-27.969a120.359 120.359 0 0012.652-53.613v-14.797c29.43 0 53.282-23.855 53.282-53.281V171.418c0-7.352-5.961-13.32-13.32-13.32zM91.684 651.195L25.75 450.066a13.355 13.355 0 01.773-10.171 13.313 13.313 0 017.739-6.641l57.422-18.824zM504.609 38.223c0-7.356 5.961-13.328 13.317-13.328 7.363 0 13.324 5.972 13.324 13.328v13.32h-26.64zM464.65 91.5c0-7.355 5.96-13.316 13.32-13.316h79.918c7.355 0 13.316 5.96 13.316 13.316v13.32H464.648zm-333 679.32c-7.36 0-13.329-5.965-13.329-13.316V357.902c0-7.359 5.97-13.324 13.328-13.324h159.836v54.762a120.659 120.659 0 0012.653 53.629l13.988 27.968v39.16a44.166 44.166 0 00-34.242-15.671 38.02 38.02 0 00-25.7 8.847 37.993 37.993 0 00-25.69-8.847c-25.9.883-46.684 21.668-47.567 47.566 0 28.258 19.715 42.352 35.547 53.664 15.574 11.13 24.39 18.102 24.39 31.965 0 7.356 5.965 13.32 13.32 13.32 7.36 0 13.32-5.964 13.32-13.32 0-13.863 8.817-20.836 24.388-31.965a125.75 125.75 0 0022.234-18.863v170.71c.016 2.517.27 5.028.762 7.497.148.8.41 1.547.61 2.332.292 1.156.507 2.371.91 3.488zm173.16-218.828c0 13.88-8.825 20.86-24.403 31.965a125.179 125.179 0 00-22.222 18.648 125.432 125.432 0 00-22.22-18.648c-15.577-11.14-24.398-18.113-24.398-31.965 0-.207 3.016-20.926 20.926-20.926 3.371-.332 6.711.868 9.102 3.266a11.308 11.308 0 013.27 9.102c0 7.363 5.964 13.324 13.32 13.324 7.359 0 13.32-5.961 13.32-13.324a11.33 11.33 0 0112.379-12.368c17.914 0 20.926 20.72 20.926 20.926zm386.277-34.254h-346.32v-26.64h346.32zm26.64-226.437V399.34a90.375 90.375 0 01-.824 11.844H557.887c-7.36 0-13.32 5.96-13.32 13.316 0 7.36 5.96 13.32 13.32 13.32h151.379c-.493 1.07-.864 2.188-1.325 3.227L696.18 464.46h-356.5l-11.711-23.414c-.52-1.04-.89-2.156-1.328-3.227h151.328c7.351 0 13.32-5.96 13.32-13.32 0-7.355-5.969-13.316-13.32-13.316H318.938a93.146 93.146 0 01-.813-11.844V144.777c0-7.351 5.96-13.316 13.324-13.316H704.41c7.356 0 13.317 5.965 13.317 13.316zm26.637 66.601v-53.28c14.715 0 26.64 11.925 26.64 26.64s-11.925 26.64-26.64 26.64zm0 0"/></svg><svg viewBox="0 0 512 512" id="i-slot-type" xmlns="http://www.w3.org/2000/svg"><path d="M511.583 185.969c-21.357-61.348-60.699-105.655-62.363-107.511a7.495 7.495 0 00-4.702-2.441c-.84-.1-85.228-9.949-188.518-9.949-22.793 0-46.443.479-70.292 1.422-4.139.164-7.361 3.652-7.198 7.791s3.653 7.343 7.791 7.198a1805.185 1805.185 0 0152.247-1.318c-18.361 20.049-53.662 60.817-79.022 103.8-26.746-42.127-58.691-78.17-75.08-95.64 13.752-1.34 36.1-3.299 63.996-4.963a7.5 7.5 0 007.04-7.934 7.495 7.495 0 00-7.934-7.04c-47.909 2.858-79.751 6.595-80.067 6.633a7.495 7.495 0 00-4.702 2.441C61.114 80.314 21.774 124.622.416 185.969a7.5 7.5 0 00.35 5.77 998.83 998.83 0 0041.84 76.568 7.496 7.496 0 0010.299 2.537 7.5 7.5 0 002.536-10.299 984.848 984.848 0 01-35.093-63.17c22.553 2.317 71.156 6.797 133.153 9.542 5.119 26.769 28.701 140.161 83.654 272.598-9.641-8.329-21.856-19.392-35.826-33.16-32.314-31.847-80.712-84.933-127.766-156.983a7.499 7.499 0 00-10.38-2.178 7.5 7.5 0 00-2.178 10.38c47.783 73.166 96.958 127.102 129.795 159.464 35.694 35.177 59.78 52.796 60.788 53.529 1.315.956 2.863 1.434 4.411 1.434s3.096-.478 4.411-1.434c1.796-1.306 44.644-32.714 100.708-95.516a7.499 7.499 0 00-.6-10.589 7.498 7.498 0 00-10.589.6c-30.409 34.063-57.172 58.944-75.071 74.416 54.943-132.421 78.521-245.795 83.639-272.562 61.999-2.745 110.603-7.224 133.155-9.542-33.076 65.088-73.379 126.39-119.929 182.386a7.5 7.5 0 1011.535 9.588c50.217-60.407 93.273-126.893 127.974-197.61a7.493 7.493 0 00.351-5.769zm-493.734-3.936c16.106-41.474 40.425-74.276 50.947-87.382 13.537 14.152 48.584 52.348 77.139 96.902-61.672-2.934-108.837-7.485-128.086-9.52zM256 485.634c-55.874-131.218-80.731-245.716-87.097-278.085 27.136 1.031 56.489 1.695 87.097 1.695 30.609 0 59.962-.664 87.099-1.695-6.359 32.357-31.191 146.793-87.099 278.085zm96.47-300.669c-4.681-7.925-9.921-16.148-15.659-24.565a7.5 7.5 0 00-10.421-1.973 7.5 7.5 0 00-1.973 10.421c5.576 8.181 10.658 16.155 15.184 23.823-26.134.961-54.286 1.574-83.601 1.574s-57.466-.612-83.601-1.574c27.811-47.097 69.022-92.688 83.604-108.236 9.063 9.651 28.396 30.876 48.324 56.771a7.49 7.49 0 005.949 2.926 7.5 7.5 0 005.939-12.075c-16.35-21.244-32.344-39.446-42.806-50.897 69.202.729 127.645 5.594 154.139 8.166-16.391 17.473-48.334 53.515-75.078 95.639zm13.594 6.589c28.557-44.558 63.609-82.757 77.143-96.906 10.52 13.088 34.816 45.842 50.944 87.385-19.247 2.035-66.413 6.586-128.087 9.521zM70.775 362.638a7.5 7.5 0 10-3.607-14.559L27.28 357.96a7.5 7.5 0 103.608 14.559zM97.524 400.69l-64.537 37.101a7.5 7.5 0 00-2.764 10.24 7.497 7.497 0 0010.24 2.764L105 413.694c3.591-2.064 4.829-6.649 2.764-10.24s-6.649-4.829-10.24-2.764zM141.625 449.524a7.5 7.5 0 00-10.529 1.284l-18.045 23.057a7.5 7.5 0 0011.813 9.245l18.045-23.057a7.502 7.502 0 00-1.284-10.529zM484.72 354.7l-39.888-9.882a7.5 7.5 0 10-3.607 14.559l39.888 9.882c.606.15 1.212.222 1.81.222a7.5 7.5 0 001.797-14.781zM479.012 434.531l-64.537-37.1a7.501 7.501 0 00-7.476 13.004l64.537 37.1a7.497 7.497 0 0010.24-2.764 7.498 7.498 0 00-2.764-10.24zM380.904 447.548a7.5 7.5 0 00-11.813 9.245l18.045 23.057a7.487 7.487 0 005.912 2.878 7.501 7.501 0 005.901-12.123zM256 43.165a7.5 7.5 0 007.5-7.5V7.5a7.5 7.5 0 00-15 0v28.165a7.5 7.5 0 007.5 7.5zM168.604 46.309a7.496 7.496 0 0010.264 2.676 7.5 7.5 0 002.676-10.264l-9.083-15.489a7.501 7.501 0 00-12.94 7.588zM333.132 48.985a7.497 7.497 0 0010.264-2.676l9.083-15.489a7.501 7.501 0 00-12.94-7.588l-9.083 15.489a7.502 7.502 0 002.676 10.264z"/><circle cx="251.13" cy="395.043" r="7.5"/><circle cx="74.54" cy="231.373" r="7.5"/><circle cx="129.81" cy="109.323" r="7.5"/><circle cx="377.91" cy="103.043" r="7.5"/><circle cx="433.63" cy="235.513" r="7.5"/></svg><svg viewBox="0 0 512 512" id="i-software" xmlns="http://www.w3.org/2000/svg"><path d="M344.177 319.613c12.976 0 23.532-10.557 23.532-23.532V183.855c0-12.976-10.557-23.532-23.532-23.532h-8.016a7.5 7.5 0 000 15h8.016c4.705 0 8.532 3.828 8.532 8.532v112.226c0 4.705-3.828 8.532-8.532 8.532h-72.661v-129.29h32.58a7.5 7.5 0 000-15H87.661c-12.976 0-23.532 10.556-23.532 23.532v112.226c0 12.976 10.557 23.532 23.532 23.532zm-87.661-15h-81.193v-129.29h81.193zm-177.387-8.532V183.855c0-4.705 3.828-8.532 8.532-8.532h72.662v129.29H87.661c-4.704 0-8.532-3.828-8.532-8.532z"/><path d="M141.67 203.288a7.498 7.498 0 00-5.912-2.885h-32.065a7.5 7.5 0 000 15h22.459l-13.703 54.81a7.499 7.499 0 007.282 9.321 7.503 7.503 0 007.27-5.683l16.033-64.129a7.497 7.497 0 00-1.364-6.434zM199.887 215.403h22.458l-13.702 54.81a7.499 7.499 0 007.282 9.321 7.503 7.503 0 007.27-5.683l16.032-64.129a7.499 7.499 0 00-7.276-9.32h-32.064a7.5 7.5 0 000 15.001zM310.294 279.308c.61.153 1.222.226 1.825.226a7.503 7.503 0 007.27-5.683l16.032-64.129a7.499 7.499 0 00-7.276-9.32h-32.064a7.5 7.5 0 000 15h22.458l-13.702 54.81a7.5 7.5 0 005.457 9.096zM215.919 55.081a7.5 7.5 0 007.5-7.5V7.5a7.5 7.5 0 00-15 0v40.081a7.5 7.5 0 007.5 7.5zM169.131 50.935a7.5 7.5 0 1013.416-6.707l-8.016-16.032a7.499 7.499 0 00-10.062-3.354 7.5 7.5 0 00-3.354 10.062zM252.646 54.289a7.5 7.5 0 0010.062-3.355l8.016-16.032a7.5 7.5 0 10-13.416-6.708l-8.016 16.032a7.5 7.5 0 003.354 10.063zM288.064 352.71h-144.29c-12.976 0-23.533 10.556-23.533 23.532s10.557 23.532 23.533 23.532h144.29c12.976 0 23.532-10.556 23.532-23.532s-10.556-23.532-23.532-23.532zm0 32.064h-144.29c-4.705 0-8.533-3.828-8.533-8.532s3.828-8.532 8.533-8.532h144.29c4.705 0 8.532 3.828 8.532 8.532s-3.827 8.532-8.532 8.532z"/><path d="M487.952 231.952c0-12.976-10.557-23.532-23.532-23.532s-23.532 10.557-23.532 23.532c0 10.354 6.724 19.16 16.032 22.3V360.21c0 4.705-3.828 8.532-8.532 8.532h-8.532v-8.532c0-12.976-10.557-23.532-23.532-23.532h-8.532V183.855c0-35.076-28.537-63.613-63.613-63.613h-67.51l-17.544-35.089c-4.012-8.024-12.077-13.008-21.048-13.008h-44.312c-8.971 0-17.036 4.985-21.047 13.008l-17.544 35.088h-67.51c-35.076 0-63.613 28.537-63.613 63.613v304.613c0 12.976 10.557 23.532 23.532 23.532h336.678c12.976 0 23.532-10.557 23.532-23.532v-72.662h8.532c12.976 0 23.532-10.556 23.532-23.532v-8.532h8.532c12.976 0 23.532-10.556 23.532-23.532V254.251c9.307-3.139 16.031-11.946 16.031-22.299zM186.132 91.861a8.484 8.484 0 017.631-4.716h44.312a8.486 8.486 0 017.632 4.716l14.19 28.38h-87.955zM384.258 497H47.581c-4.705 0-8.532-3.828-8.532-8.532v-8.532h24.568a7.5 7.5 0 000-15H39.048V183.855c0-26.805 21.808-48.613 48.613-48.613h256.516c26.806 0 48.613 21.808 48.613 48.613v281.081H95.677a7.5 7.5 0 000 15H392.79v8.532c.001 4.704-3.827 8.532-8.532 8.532zm40.597-104.726c0 4.705-3.828 8.532-8.532 8.532h-8.532v-49.129h8.532c4.705 0 8.532 3.828 8.532 8.532zm39.564-151.79c-4.705 0-8.532-3.828-8.532-8.532s3.828-8.532 8.532-8.532 8.532 3.828 8.532 8.532-3.827 8.532-8.532 8.532z"/></svg><svg viewBox="0 0 512 418" id="i-supply" xmlns="http://www.w3.org/2000/svg"><path d="M240.9 365c-2.6 0-5.2 1.1-7.1 2.9-1.9 1.9-2.9 4.4-2.9 7.1 0 2.6 1.1 5.2 2.9 7.1 1.9 1.9 4.4 2.9 7.1 2.9s5.2-1.1 7.1-2.9c1.9-1.9 2.9-4.4 2.9-7.1 0-2.6-1.1-5.2-2.9-7.1-1.9-1.8-4.4-2.9-7.1-2.9zm190.9-29.9c-2.6 0-5.2 1.1-7.1 2.9-1.9 1.9-2.9 4.4-2.9 7.1 0 2.6 1.1 5.2 2.9 7.1 1.9 1.9 4.4 2.9 7.1 2.9 2.6 0 5.2-1.1 7.1-2.9 1.9-1.9 2.9-4.4 2.9-7.1s-1.1-5.2-2.9-7.1c-1.9-1.8-4.5-2.9-7.1-2.9zM135.9 287c-2.6 0-5.2 1.1-7.1 2.9-1.9 1.9-2.9 4.4-2.9 7.1s1.1 5.2 2.9 7.1c1.9 1.9 4.4 2.9 7.1 2.9s5.2-1.1 7.1-2.9c1.9-1.9 2.9-4.4 2.9-7.1s-1.1-5.2-2.9-7.1-4.4-2.9-7.1-2.9zM512 108.5c0-5.5-4.5-10-10-10h-15.4c-2.1-7-4.9-13.8-8.4-20.3l10.9-10.9c3.9-3.9 3.9-10.2 0-14.1l-30.4-30.4c-3.9-3.9-10.2-3.9-14.1 0l-10.9 10.9c-6.5-3.5-13.2-6.3-20.3-8.4V9.9c0-5.5-4.5-10-10-10h-42.9c-5.5 0-10 4.5-10 10v15.4c-7 2.1-13.8 4.9-20.2 8.4l-10.9-10.9c-3.9-3.9-10.2-3.9-14.1 0l-30.4 30.4c-2.4 2.4-3.3 5.7-2.8 8.7H40C18 62 0 80 0 102v276c0 22.1 18 40 40 40H441.7c22.1 0 40-18 40-40V214.1l7.3-7.3c1.9-1.9 2.9-4.4 2.9-7.1s-1.1-5.2-2.9-7.1l-10.9-10.9c3.5-6.4 6.3-13.2 8.4-20.2H502c2.7 0 5.2-1.1 7.1-2.9s2.9-4.4 2.9-7.1v-43zM461.8 378c0 11-9 20-20 20H40c-11 0-20-9-20-20v-22.9h371.8c5.5 0 10-4.5 10-10s-4.5-10-10-10H20V307h76.3c5.5 0 10-4.5 10-10s-4.5-10-10-10H20V102c0-11 9-20 20-20h244c-2.6 5.3-4.8 10.8-6.5 16.5H262c-2.7 0-5.2 1.1-7.1 2.9s-2.9 4.4-2.9 7.1v42.9c0 5.5 4.5 10 10 10h15.6c2.1 7 4.9 13.7 8.3 20.1l-11 11c-3.9 3.9-3.9 10.2 0 14.1l30.4 30.4c3.9 3.9 10.2 3.9 14.1 0l11-11c6.4 3.5 13.2 6.2 20.1 8.3v15.6c0 5.5 4.5 10 10 10h42.9c5.5 0 10-4.5 10-10v-15.5c7-2.1 13.7-4.9 20.2-8.3l11 11c1.9 1.9 4.4 2.9 7.1 2.9s5.2-1.1 7.1-2.9l3-3V378zM492 141.5h-13.2c-4.7 0-8.7 3.3-9.8 7.8-2.3 10.2-6.2 19.8-11.9 28.6-2.5 3.9-2 9.1 1.3 12.5l9.3 9.3-16.2 16.2-9.4-9.4c-3-3-7.7-3.8-11.5-1.9-.3.2-.6.3-.9.5-8.8 5.6-18.4 9.6-28.6 11.8-4.6 1-7.9 5.1-7.9 9.8V240h-22.9v-13.3c0-4.7-3.3-8.8-7.8-9.8-10.1-2.2-19.7-6.2-28.5-11.8-1.6-1-3.5-1.6-5.4-1.6-2.7 0-5.2 1.1-7.1 2.9l-9.4 9.4-16.2-16.2 9.4-9.4c3.3-3.3 3.9-8.5 1.3-12.5-5.6-8.8-9.6-18.4-11.8-28.5-1-4.6-5.1-7.8-9.8-7.8h-13v-22.9h13.3c4.7 0 8.8-3.3 9.8-7.9 2.2-10.2 6.2-19.8 11.8-28.5 2.5-3.9 2-9.1-1.3-12.5l-9.4-9.4L312.4 44l9.3 9.3c3.4 3.4 8.7 3.8 12.6 1.3 8.8-5.6 18.3-9.5 28.4-11.8 4.6-1 7.8-5.1 7.8-9.8V19.8h22.9v13.1c0 4.7 3.3 8.8 7.9 9.8 10.2 2.2 19.8 6.2 28.6 11.9.3.2.6.4.9.5 3.8 1.9 8.5 1.2 11.5-1.9l9.3-9.3 16.2 16.2-9.3 9.3c-.5.5-.9 1-1.2 1.5-2.2 3.3-2.2 7.6-.1 10.9 5.6 8.8 9.6 18.4 11.8 28.6 1 4.6 5.1 7.9 9.8 7.9H492v23.2zM382 68c-34.2 0-62 27.8-62 62s27.8 62 62 62 62-27.8 62-62-27.8-62-62-62zm0 104c-23.2 0-42-18.8-42-42s18.8-42 42-42 42 18.8 42 42-18.8 42-42 42zm-218.3 15.2c-2.6 0-5.2 1.1-7.1 2.9-1.9 1.9-2.9 4.4-2.9 7.1 0 2.6 1.1 5.2 2.9 7.1 1.9 1.9 4.4 2.9 7.1 2.9 2.6 0 5.2-1.1 7.1-2.9 1.9-1.9 2.9-4.4 2.9-7.1 0-2.6-1.1-5.2-2.9-7.1-1.9-1.8-4.5-2.9-7.1-2.9zm78-7.4c.7-2.6.3-5.3-1-7.6L223.8 143c-2.8-4.8-8.9-6.4-13.7-3.7l-9.6 5.6c-3.2-2.2-6.5-4.2-10-5.8V128c0-5.5-4.5-10-10-10h-33.8c-5.5 0-10 4.5-10 10v11.1c-3.5 1.6-6.8 3.6-10 5.8l-9.6-5.6c-2.3-1.3-5-1.7-7.6-1-2.6.7-4.7 2.4-6.1 4.7l-16.9 29.2c-2.8 4.8-1.1 10.9 3.7 13.7l9.6 5.6c-.2 1.9-.3 3.8-.3 5.8s.1 3.9.3 5.8l-9.6 5.6c-4.8 2.8-6.4 8.9-3.7 13.7l16.9 29.2c1.3 2.3 3.5 4 6.1 4.7 2.6.7 5.3.3 7.6-1l9.6-5.6c3.2 2.2 6.5 4.2 10 5.8v11.1c0 5.5 4.5 10 10 10h33.8c5.5 0 10-4.5 10-10v-11.1c3.5-1.6 6.8-3.6 10-5.8l9.6 5.6c4.8 2.8 10.9 1.1 13.7-3.7l16.9-29.2c1.3-2.3 1.7-5 1-7.6-.7-2.6-2.4-4.7-4.7-6.1l-9.6-5.6c.2-1.9.3-3.8.3-5.8s-.1-3.9-.3-5.8l9.6-5.6c2.4-1.3 4-3.5 4.7-6.1zm-34.9 8.4c.6 2.9.9 6 .9 9s-.3 6.1-.9 9c-.9 4.2 1.1 8.5 4.8 10.7l6.8 3.9-6.9 11.9-6.8-4c-3.7-2.2-8.4-1.7-11.7 1.2-4.6 4.1-9.8 7.1-15.6 9-4.1 1.3-6.9 5.2-6.9 9.5v7.9h-13.8v-7.9c0-4.3-2.8-8.2-6.9-9.5-5.8-1.9-11-4.9-15.6-9-3.2-2.9-7.9-3.4-11.7-1.2l-6.8 4-6.9-11.9 6.8-3.9c3.7-2.2 5.7-6.5 4.8-10.7-.6-2.9-.9-6-.9-9s.3-6.1.9-9c.9-4.2-1.1-8.5-4.8-10.7l-6.8-3.9 6.9-11.9 6.8 4c3.7 2.2 8.4 1.7 11.7-1.2 4.6-4.1 9.8-7.1 15.6-9 4.1-1.3 6.9-5.2 6.9-9.5v-8h13.8v7.9c0 4.3 2.8 8.2 6.9 9.5 5.8 1.9 11 4.9 15.6 9 3.2 2.9 7.9 3.4 11.7 1.2l6.8-4 6.9 11.9-6.8 3.9c-3.8 2.3-5.7 6.6-4.8 10.8z"/></svg><svg viewBox="0 0 352.6 352.6" id="i-true" xmlns="http://www.w3.org/2000/svg"><path d="M337.2 23c-15.9-8.6-33.7 8-44.1 17.7-23.9 23.3-44.1 50.2-66.7 74.7-25.1 26.9-48.3 53.9-74.1 80.2-14.7 14.7-30.6 30.6-40.4 49-22-21.4-41-44.7-65.5-63.6-17.6-13.6-47-23.4-46.4 9 1.2 42.2 38.6 87.5 66.1 116.3 11.6 12.2 26.9 25.1 44.7 25.7 21.4 1.2 43.5-24.5 56.3-38.6 22.6-24.5 41-52 61.8-77.1 26.9-33 54.5-65.5 80.8-99.1C326.2 96.4 378.2 45 337.2 23z"/></svg></svg>